<svg xmlns="http://www.w3.org/2000/svg" xmlns:xlink="http://www.w3.org/1999/xlink" width="2000" zoomAndPan="magnify" viewBox="0 0 1500 1499.999933" height="2000" preserveAspectRatio="xMidYMid meet" version="1.0"><defs><g/></defs><path fill="#4a7fd4" d="M 234.964844 644.925781 C 228.046875 648.609375 223.003906 662.417969 227.894531 664.296875 C 228.855469 664.664062 253.203125 664.964844 282.003906 664.964844 L 334.371094 664.964844 L 334.371094 721.839844 C 334.371094 753.117188 333.996094 778.65625 333.542969 778.589844 C 333.085938 778.523438 313.121094 758.378906 289.171875 733.824219 L 245.628906 689.179688 L 226.699219 689.8125 L 226.414062 767.027344 C 226.140625 842.367188 226.1875 844.351562 228.347656 848.816406 C 232.402344 857.195312 231.34375 857.054688 290.023438 857.148438 C 335.769531 857.222656 342.214844 857.023438 345.53125 855.425781 C 351.160156 852.714844 353.621094 848.722656 353.660156 842.230469 L 353.695312 836.6875 L 299.859375 836.398438 L 246.023438 836.113281 L 246.101562 721.839844 L 264.609375 740.820312 C 274.789062 751.261719 294.917969 771.777344 309.339844 786.417969 L 335.558594 813.03125 L 344.628906 812.710938 L 353.695312 812.390625 L 353.980469 733.332031 L 354.261719 654.269531 L 351.746094 650.507812 C 346.582031 642.777344 347.453125 642.882812 290.179688 642.882812 C 242.277344 642.878906 238.554688 643.019531 234.964844 644.925781 " fill-opacity="1" fill-rule="evenodd"/><g fill="#e6edf3" fill-opacity="1"><g transform="translate(394.499999, 794.249912)"><g><path d="M 31.109375 -66.765625 L 31.109375 0 L 10.859375 0 L 10.859375 -104.1875 L 26.5625 -104.1875 L 80.84375 -35.796875 L 80.84375 -104.03125 L 101.09375 -104.03125 L 101.09375 0 L 84.671875 0 Z M 31.109375 -66.765625 "/></g></g></g><g fill="#e6edf3" fill-opacity="1"><g transform="translate(506.446439, 794.249912)"><g><path d="M 55.3125 0.734375 C 47.6875 0.734375 40.765625 -0.753906 34.546875 -3.734375 C 28.335938 -6.722656 23.007812 -10.6875 18.5625 -15.625 C 14.113281 -20.5625 10.664062 -26.207031 8.21875 -32.5625 C 5.769531 -38.925781 4.546875 -45.4375 4.546875 -52.09375 C 4.546875 -59.039062 5.84375 -65.691406 8.4375 -72.046875 C 11.03125 -78.398438 14.597656 -84.023438 19.140625 -88.921875 C 23.691406 -93.816406 29.097656 -97.707031 35.359375 -100.59375 C 41.617188 -103.476562 48.421875 -104.921875 55.765625 -104.921875 C 63.296875 -104.921875 70.164062 -103.378906 76.375 -100.296875 C 82.582031 -97.210938 87.890625 -93.175781 92.296875 -88.1875 C 96.703125 -83.195312 100.125 -77.519531 102.5625 -71.15625 C 105.007812 -64.800781 106.234375 -58.347656 106.234375 -51.796875 C 106.234375 -44.847656 104.960938 -38.21875 102.421875 -31.90625 C 99.878906 -25.601562 96.359375 -20.03125 91.859375 -15.1875 C 87.359375 -10.34375 81.976562 -6.476562 75.71875 -3.59375 C 69.457031 -0.707031 62.65625 0.734375 55.3125 0.734375 Z M 25.09375 -52.09375 C 25.09375 -47.59375 25.773438 -43.238281 27.140625 -39.03125 C 28.515625 -34.820312 30.5 -31.101562 33.09375 -27.875 C 35.6875 -24.644531 38.863281 -22.050781 42.625 -20.09375 C 46.394531 -18.144531 50.675781 -17.171875 55.46875 -17.171875 C 60.351562 -17.171875 64.675781 -18.171875 68.4375 -20.171875 C 72.207031 -22.179688 75.390625 -24.847656 77.984375 -28.171875 C 80.578125 -31.492188 82.535156 -35.234375 83.859375 -39.390625 C 85.179688 -43.554688 85.84375 -47.789062 85.84375 -52.09375 C 85.84375 -56.59375 85.128906 -60.941406 83.703125 -65.140625 C 82.285156 -69.347656 80.28125 -73.066406 77.6875 -76.296875 C 75.101562 -79.523438 71.925781 -82.09375 68.15625 -84 C 64.394531 -85.90625 60.164062 -86.859375 55.46875 -86.859375 C 50.570312 -86.859375 46.21875 -85.851562 42.40625 -83.84375 C 38.59375 -81.84375 35.410156 -79.203125 32.859375 -75.921875 C 30.316406 -72.648438 28.382812 -68.9375 27.0625 -64.78125 C 25.75 -60.625 25.09375 -56.394531 25.09375 -52.09375 Z M 25.09375 -52.09375 "/></g></g></g><g fill="#e6edf3" fill-opacity="1"><g transform="translate(617.36584, 794.249912)"><g><path d="M 94.796875 -26.859375 C 94.796875 -22.453125 93.914062 -18.582031 92.15625 -15.25 C 90.394531 -11.925781 87.972656 -9.140625 84.890625 -6.890625 C 81.804688 -4.640625 78.234375 -2.925781 74.171875 -1.75 C 70.109375 -0.582031 65.78125 0 61.1875 0 L 10.859375 0 L 10.859375 -104.1875 L 66.625 -104.1875 C 70.238281 -104.1875 73.507812 -103.398438 76.4375 -101.828125 C 79.375 -100.265625 81.867188 -98.234375 83.921875 -95.734375 C 85.984375 -93.242188 87.578125 -90.410156 88.703125 -87.234375 C 89.828125 -84.054688 90.390625 -80.851562 90.390625 -77.625 C 90.390625 -72.539062 89.117188 -67.769531 86.578125 -63.3125 C 84.035156 -58.863281 80.316406 -55.5625 75.421875 -53.40625 C 81.390625 -51.644531 86.109375 -48.488281 89.578125 -43.9375 C 93.054688 -39.394531 94.796875 -33.703125 94.796875 -26.859375 Z M 74.390625 -30.671875 C 74.390625 -32.523438 74.070312 -34.304688 73.4375 -36.015625 C 72.800781 -37.734375 71.945312 -39.226562 70.875 -40.5 C 69.800781 -41.769531 68.53125 -42.769531 67.0625 -43.5 C 65.59375 -44.238281 63.976562 -44.609375 62.21875 -44.609375 L 31.109375 -44.609375 L 31.109375 -17.171875 L 61.1875 -17.171875 C 63.039062 -17.171875 64.773438 -17.507812 66.390625 -18.1875 C 68.003906 -18.875 69.398438 -19.828125 70.578125 -21.046875 C 71.753906 -22.273438 72.679688 -23.71875 73.359375 -25.375 C 74.046875 -27.039062 74.390625 -28.804688 74.390625 -30.671875 Z M 31.109375 -86.859375 L 31.109375 -60.59375 L 58.109375 -60.59375 C 61.535156 -60.59375 64.445312 -61.765625 66.84375 -64.109375 C 69.238281 -66.460938 70.4375 -69.695312 70.4375 -73.8125 C 70.4375 -77.820312 69.332031 -81 67.125 -83.34375 C 64.925781 -85.6875 62.210938 -86.859375 58.984375 -86.859375 Z M 31.109375 -86.859375 "/></g></g></g><g fill="#e6edf3" fill-opacity="1"><g transform="translate(717.1346, 794.249912)"><g><path d="M 10.859375 0 L 10.859375 -104.1875 L 56.9375 -104.1875 C 61.726562 -104.1875 66.148438 -103.179688 70.203125 -101.171875 C 74.265625 -99.171875 77.765625 -96.53125 80.703125 -93.25 C 83.640625 -89.96875 85.9375 -86.25 87.59375 -82.09375 C 89.257812 -77.9375 90.09375 -73.753906 90.09375 -69.546875 C 90.09375 -62.796875 88.40625 -56.65625 85.03125 -51.125 C 81.65625 -45.601562 77.082031 -41.617188 71.3125 -39.171875 L 95.078125 0 L 72.34375 0 L 51.0625 -34.921875 L 31.109375 -34.921875 L 31.109375 0 Z M 31.109375 -52.671875 L 56.5 -52.671875 C 58.351562 -52.671875 60.085938 -53.109375 61.703125 -53.984375 C 63.316406 -54.867188 64.707031 -56.070312 65.875 -57.59375 C 67.050781 -59.113281 67.984375 -60.898438 68.671875 -62.953125 C 69.359375 -65.003906 69.703125 -67.203125 69.703125 -69.546875 C 69.703125 -71.992188 69.304688 -74.242188 68.515625 -76.296875 C 67.734375 -78.359375 66.679688 -80.144531 65.359375 -81.65625 C 64.046875 -83.175781 62.53125 -84.347656 60.8125 -85.171875 C 59.101562 -86.003906 57.367188 -86.421875 55.609375 -86.421875 L 31.109375 -86.421875 Z M 31.109375 -52.671875 "/></g></g></g><g fill="#e6edf3" fill-opacity="1"><g transform="translate(814.702615, 794.249912)"><g><path d="M 83.203125 -17.75 L 83.203125 0 L 10.859375 0 L 10.859375 -104.1875 L 81.875 -104.1875 L 81.875 -86.421875 L 31.109375 -86.421875 L 31.109375 -61.328125 L 74.984375 -61.328125 L 74.984375 -44.90625 L 31.109375 -44.90625 L 31.109375 -17.75 Z M 83.203125 -17.75 "/></g></g></g><g fill="#e6edf3" fill-opacity="1"><g transform="translate(902.880571, 794.249912)"><g><path d="M 88.78125 -86.421875 L 55.46875 -86.421875 L 55.46875 0 L 35.359375 0 L 35.359375 -86.421875 L 2.046875 -86.421875 L 2.046875 -104.1875 L 88.78125 -104.1875 Z M 88.78125 -86.421875 "/></g></g></g><g fill="#e6edf3" fill-opacity="1"><g transform="translate(993.699502, 794.249912)"><g><path d="M 83.203125 -17.75 L 83.203125 0 L 10.859375 0 L 10.859375 -104.1875 L 81.875 -104.1875 L 81.875 -86.421875 L 31.109375 -86.421875 L 31.109375 -61.328125 L 74.984375 -61.328125 L 74.984375 -44.90625 L 31.109375 -44.90625 L 31.109375 -17.75 Z M 83.203125 -17.75 "/></g></g></g><g fill="#e6edf3" fill-opacity="1"><g transform="translate(1081.877504, 794.249912)"><g><path d="M 4.546875 -52.828125 C 4.546875 -59.179688 5.691406 -65.460938 7.984375 -71.671875 C 10.285156 -77.890625 13.640625 -83.441406 18.046875 -88.328125 C 22.453125 -93.222656 27.832031 -97.1875 34.1875 -100.21875 C 40.550781 -103.25 47.789062 -104.765625 55.90625 -104.765625 C 65.488281 -104.765625 73.773438 -102.660156 80.765625 -98.453125 C 87.765625 -94.253906 92.976562 -88.78125 96.40625 -82.03125 L 80.84375 -71.3125 C 79.476562 -74.25 77.816406 -76.71875 75.859375 -78.71875 C 73.898438 -80.726562 71.796875 -82.316406 69.546875 -83.484375 C 67.296875 -84.660156 64.945312 -85.515625 62.5 -86.046875 C 60.0625 -86.585938 57.664062 -86.859375 55.3125 -86.859375 C 50.226562 -86.859375 45.800781 -85.832031 42.03125 -83.78125 C 38.269531 -81.726562 35.140625 -79.0625 32.640625 -75.78125 C 30.148438 -72.507812 28.269531 -68.796875 27 -64.640625 C 25.726562 -60.484375 25.09375 -56.347656 25.09375 -52.234375 C 25.09375 -47.640625 25.828125 -43.210938 27.296875 -38.953125 C 28.765625 -34.703125 30.84375 -30.960938 33.53125 -27.734375 C 36.21875 -24.503906 39.441406 -21.910156 43.203125 -19.953125 C 46.972656 -17.992188 51.109375 -17.015625 55.609375 -17.015625 C 57.960938 -17.015625 60.410156 -17.304688 62.953125 -17.890625 C 65.492188 -18.484375 67.910156 -19.414062 70.203125 -20.6875 C 72.503906 -21.957031 74.632812 -23.59375 76.59375 -25.59375 C 78.550781 -27.601562 80.117188 -30.03125 81.296875 -32.875 L 97.875 -23.328125 C 96.207031 -19.421875 93.832031 -15.972656 90.75 -12.984375 C 87.675781 -10.003906 84.207031 -7.484375 80.34375 -5.421875 C 76.476562 -3.367188 72.34375 -1.804688 67.9375 -0.734375 C 63.53125 0.335938 59.226562 0.875 55.03125 0.875 C 47.59375 0.875 40.789062 -0.6875 34.625 -3.8125 C 28.46875 -6.945312 23.160156 -11.03125 18.703125 -16.0625 C 14.253906 -21.101562 10.78125 -26.828125 8.28125 -33.234375 C 5.789062 -39.640625 4.546875 -46.171875 4.546875 -52.828125 Z M 4.546875 -52.828125 "/></g></g></g><g fill="#e6edf3" fill-opacity="1"><g transform="translate(1182.526635, 794.249912)"><g><path d="M 98.453125 -104.1875 L 98.453125 0 L 78.359375 0 L 78.359375 -44.453125 L 31.109375 -44.453125 L 31.109375 0 L 10.859375 0 L 10.859375 -104.1875 L 31.109375 -104.1875 L 31.109375 -62.0625 L 78.359375 -62.0625 L 78.359375 -104.1875 Z M 98.453125 -104.1875 "/></g></g></g><g fill="#7d8fa5" fill-opacity="1"><g transform="translate(660.610468, 875.249905)"><g><path d="M 32.9375 -34.71875 C 32.625 -35.03125 32.054688 -35.453125 31.234375 -35.984375 C 30.421875 -36.515625 29.425781 -37.03125 28.25 -37.53125 C 27.082031 -38.039062 25.8125 -38.472656 24.4375 -38.828125 C 23.070312 -39.179688 21.6875 -39.359375 20.28125 -39.359375 C 17.757812 -39.359375 15.878906 -38.894531 14.640625 -37.96875 C 13.410156 -37.039062 12.796875 -35.738281 12.796875 -34.0625 C 12.796875 -33.09375 13.023438 -32.285156 13.484375 -31.640625 C 13.953125 -31.003906 14.625 -30.441406 15.5 -29.953125 C 16.382812 -29.460938 17.5 -29.019531 18.84375 -28.625 C 20.195312 -28.226562 21.757812 -27.8125 23.53125 -27.375 C 25.820312 -26.75 27.90625 -26.082031 29.78125 -25.375 C 31.664062 -24.664062 33.257812 -23.78125 34.5625 -22.71875 C 35.863281 -21.664062 36.867188 -20.398438 37.578125 -18.921875 C 38.285156 -17.441406 38.640625 -15.617188 38.640625 -13.453125 C 38.640625 -10.929688 38.160156 -8.773438 37.203125 -6.984375 C 36.253906 -5.203125 34.972656 -3.757812 33.359375 -2.65625 C 31.753906 -1.550781 29.898438 -0.742188 27.796875 -0.234375 C 25.703125 0.273438 23.503906 0.53125 21.203125 0.53125 C 17.671875 0.53125 14.179688 0 10.734375 -1.0625 C 7.285156 -2.125 4.191406 -3.625 1.453125 -5.5625 L 5.5 -13.453125 C 5.894531 -13.054688 6.609375 -12.535156 7.640625 -11.890625 C 8.679688 -11.253906 9.910156 -10.613281 11.328125 -9.96875 C 12.742188 -9.332031 14.3125 -8.789062 16.03125 -8.34375 C 17.757812 -7.90625 19.53125 -7.6875 21.34375 -7.6875 C 26.375 -7.6875 28.890625 -9.300781 28.890625 -12.53125 C 28.890625 -13.539062 28.601562 -14.398438 28.03125 -15.109375 C 27.457031 -15.816406 26.640625 -16.4375 25.578125 -16.96875 C 24.515625 -17.5 23.234375 -17.984375 21.734375 -18.421875 C 20.234375 -18.859375 18.554688 -19.34375 16.703125 -19.875 C 14.441406 -20.5 12.484375 -21.175781 10.828125 -21.90625 C 9.171875 -22.632812 7.789062 -23.492188 6.6875 -24.484375 C 5.582031 -25.472656 4.753906 -26.617188 4.203125 -27.921875 C 3.648438 -29.234375 3.375 -30.796875 3.375 -32.609375 C 3.375 -34.992188 3.816406 -37.113281 4.703125 -38.96875 C 5.585938 -40.820312 6.8125 -42.363281 8.375 -43.59375 C 9.945312 -44.832031 11.769531 -45.769531 13.84375 -46.40625 C 15.925781 -47.050781 18.160156 -47.375 20.546875 -47.375 C 23.859375 -47.375 26.90625 -46.851562 29.6875 -45.8125 C 32.46875 -44.78125 34.894531 -43.554688 36.96875 -42.140625 Z M 32.9375 -34.71875 "/></g></g></g><g fill="#7d8fa5" fill-opacity="1"><g transform="translate(743.767844, 875.249905)"><g><path d="M 40.09375 -39.03125 L 25.046875 -39.03125 L 25.046875 0 L 15.96875 0 L 15.96875 -39.03125 L 0.921875 -39.03125 L 0.921875 -47.046875 L 40.09375 -47.046875 Z M 40.09375 -39.03125 "/></g></g></g><g fill="#7d8fa5" fill-opacity="1"><g transform="translate(827.322765, 875.249905)"><g><path d="M 24.984375 0.328125 C 21.535156 0.328125 18.40625 -0.34375 15.59375 -1.6875 C 12.789062 -3.03125 10.382812 -4.816406 8.375 -7.046875 C 6.375 -9.285156 4.816406 -11.835938 3.703125 -14.703125 C 2.597656 -17.578125 2.046875 -20.519531 2.046875 -23.53125 C 2.046875 -26.664062 2.628906 -29.664062 3.796875 -32.53125 C 4.972656 -35.40625 6.585938 -37.945312 8.640625 -40.15625 C 10.703125 -42.363281 13.144531 -44.117188 15.96875 -45.421875 C 18.800781 -46.722656 21.875 -47.375 25.1875 -47.375 C 28.582031 -47.375 31.679688 -46.675781 34.484375 -45.28125 C 37.296875 -43.894531 39.691406 -42.078125 41.671875 -39.828125 C 43.660156 -37.578125 45.207031 -35.015625 46.3125 -32.140625 C 47.414062 -29.265625 47.96875 -26.347656 47.96875 -23.390625 C 47.96875 -20.253906 47.394531 -17.257812 46.25 -14.40625 C 45.101562 -11.5625 43.515625 -9.046875 41.484375 -6.859375 C 39.453125 -4.671875 37.019531 -2.925781 34.1875 -1.625 C 31.363281 -0.320312 28.296875 0.328125 24.984375 0.328125 Z M 11.328125 -23.53125 C 11.328125 -21.488281 11.632812 -19.519531 12.25 -17.625 C 12.875 -15.726562 13.769531 -14.050781 14.9375 -12.59375 C 16.113281 -11.132812 17.550781 -9.960938 19.25 -9.078125 C 20.945312 -8.191406 22.878906 -7.75 25.046875 -7.75 C 27.253906 -7.75 29.207031 -8.203125 30.90625 -9.109375 C 32.613281 -10.015625 34.050781 -11.21875 35.21875 -12.71875 C 36.382812 -14.21875 37.265625 -15.90625 37.859375 -17.78125 C 38.460938 -19.664062 38.765625 -21.582031 38.765625 -23.53125 C 38.765625 -25.5625 38.441406 -27.523438 37.796875 -29.421875 C 37.160156 -31.316406 36.253906 -32.992188 35.078125 -34.453125 C 33.910156 -35.910156 32.476562 -37.070312 30.78125 -37.9375 C 29.082031 -38.800781 27.171875 -39.234375 25.046875 -39.234375 C 22.835938 -39.234375 20.867188 -38.78125 19.140625 -37.875 C 17.421875 -36.96875 15.988281 -35.773438 14.84375 -34.296875 C 13.695312 -32.816406 12.820312 -31.132812 12.21875 -29.25 C 11.625 -27.375 11.328125 -25.46875 11.328125 -23.53125 Z M 11.328125 -23.53125 "/></g></g></g><g fill="#7d8fa5" fill-opacity="1"><g transform="translate(919.955035, 875.249905)"><g><path d="M 4.90625 0 L 4.90625 -47.046875 L 25.71875 -47.046875 C 27.875 -47.046875 29.867188 -46.59375 31.703125 -45.6875 C 33.535156 -44.78125 35.113281 -43.585938 36.4375 -42.109375 C 37.769531 -40.628906 38.8125 -38.953125 39.5625 -37.078125 C 40.3125 -35.203125 40.6875 -33.3125 40.6875 -31.40625 C 40.6875 -28.363281 39.921875 -25.59375 38.390625 -23.09375 C 36.867188 -20.59375 34.804688 -18.789062 32.203125 -17.6875 L 42.9375 0 L 32.671875 0 L 23.0625 -15.765625 L 14.046875 -15.765625 L 14.046875 0 Z M 14.046875 -23.796875 L 25.515625 -23.796875 C 26.347656 -23.796875 27.128906 -23.992188 27.859375 -24.390625 C 28.585938 -24.785156 29.21875 -25.320312 29.75 -26 C 30.28125 -26.6875 30.695312 -27.492188 31 -28.421875 C 31.3125 -29.347656 31.46875 -30.34375 31.46875 -31.40625 C 31.46875 -32.507812 31.289062 -33.523438 30.9375 -34.453125 C 30.59375 -35.378906 30.117188 -36.1875 29.515625 -36.875 C 28.921875 -37.5625 28.238281 -38.09375 27.46875 -38.46875 C 26.695312 -38.84375 25.910156 -39.03125 25.109375 -39.03125 L 14.046875 -39.03125 Z M 14.046875 -23.796875 "/></g></g></g><g fill="#7d8fa5" fill-opacity="1"><g transform="translate(1006.557826, 875.249905)"><g><path d="M 37.578125 -8.015625 L 37.578125 0 L 4.90625 0 L 4.90625 -47.046875 L 36.96875 -47.046875 L 36.96875 -39.03125 L 14.046875 -39.03125 L 14.046875 -27.703125 L 33.859375 -27.703125 L 33.859375 -20.28125 L 14.046875 -20.28125 L 14.046875 -8.015625 Z M 37.578125 -8.015625 "/></g></g></g><path stroke-linecap="butt" transform="matrix(0.75, -0.000000000000000744, 0.000000000000000744, 0.75, 1099.633427, 850.874907)" fill="none" stroke-linejoin="miter" d="M -0.000818847 2.000125 L 216.243991 2.000125 " stroke="#7d8fa5" stroke-width="4" stroke-opacity="1" stroke-miterlimit="4"/><path stroke-linecap="butt" transform="matrix(0.75, -0.000000000000000744, 0.000000000000000744, 0.75, 445.183435, 850.874907)" fill="none" stroke-linejoin="miter" d="M 0.00021166 2.000125 L 216.245022 2.000125 " stroke="#7d8fa5" stroke-width="4" stroke-opacity="1" stroke-miterlimit="4"/></svg>